<?xml version="1.0" encoding="UTF-8"?> <svg xmlns="http://www.w3.org/2000/svg" xmlns:xlink="http://www.w3.org/1999/xlink" id="a" viewBox="0 0 442 442"><defs><linearGradient id="b" x1="221" y1="-6767.5173" x2="221" y2="-6994.1349" gradientTransform="translate(0 -6603.89) scale(1 -1)" gradientUnits="userSpaceOnUse"><stop offset=".0378" stop-color="#145fd9"></stop><stop offset=".2541" stop-color="#0c77da"></stop><stop offset=".5354" stop-color="#0391db"></stop><stop offset=".7047" stop-color="#009adb"></stop></linearGradient><linearGradient id="c" x1="221" y1="-6710.4609" x2="221" y2="-6920.2096" gradientTransform="translate(0 -6603.89) scale(1 -1)" gradientUnits="userSpaceOnUse"><stop offset=".0086" stop-color="#0f7add"></stop><stop offset=".3487" stop-color="#1ca1ea"></stop><stop offset=".6484" stop-color="#25bdf4"></stop><stop offset=".8225" stop-color="#28c7f7"></stop></linearGradient></defs><path d="M220.7731,163.2475l181.6089,104.2218c8.6266,4.9631,8.6266,17.5962,0,22.5593l-181.6089,103.77-80.8158,46.4711c-8.6267,4.9631-19.5236-1.3535-19.5236-11.2787v-92.4913l-80.8158-46.4711c-8.6265-4.9631-8.6265-17.5962,0-22.5593l181.1552-104.2218Z" style="fill:url(#b); stroke-width:0px;"></path><path d="M39.6179,232.2826l170.2582,97.9053c6.811,4.0614,14.983,4.0614,21.793,0l170.7128-97.9053c8.6266-4.9621,8.6266-17.5953,0-22.5583l-181.6089-104.2218L39.6179,209.7243c-8.6265,4.9631-8.6265,17.5962,0,22.5583Z" style="fill:url(#c); stroke-width:0px;"></path><path d="M209.8761,272.4362L39.6179,174.5309c-8.6265-4.9631-8.6265-17.5962,0-22.5593L220.7731,48.2014,301.5889,1.7303c8.6267-4.963,19.5227,1.3535,19.5227,11.2794v92.4909l81.2704,46.4711c8.6266,4.9631,8.6266,17.5962,0,22.5593l-170.7128,97.9053c-6.3563,4.0604-14.982,4.0604-21.793,0Z" style="fill:#85e3ff; stroke-width:0px;"></path></svg> 